<svg id="iconfinder_shopping-cart_326700" xmlns="http://www.w3.org/2000/svg" viewBox="0 0 48 48">
  <defs>
    <style>
      .cls-1 {
        fill: #fff;
        fill-rule: evenodd;
      }
    </style>
  </defs>
  <g id="Core">
    <g id="shopping-cart">
      <path id="Shape" class="cls-1" d="M14.4,38.4a4.8,4.8,0,1,0,4.8,4.8,4.814,4.814,0,0,0-4.8-4.8ZM0,0V4.8H4.8l8.64,18.24L10.08,28.8a8.527,8.527,0,0,0-.48,2.4A4.814,4.814,0,0,0,14.4,36H43.2V31.2H15.36a.516.516,0,0,1-.48-.48v-.24l2.16-4.08H34.8A4.377,4.377,0,0,0,38.88,24L47.52,8.4A1.321,1.321,0,0,0,48,7.2a2.267,2.267,0,0,0-2.4-2.4H10.08L7.92,0ZM38.4,38.4a4.8,4.8,0,1,0,4.8,4.8,4.814,4.814,0,0,0-4.8-4.8Z"/>
    </g>
  </g>
</svg>
