<svg id="Layer_1" data-name="Layer 1" xmlns="http://www.w3.org/2000/svg" viewBox="0 0 148.29 88"><defs><style>.cls-1{isolation:isolate;}.cls-2{fill:#fff;}</style></defs><title>Artboard 1</title><g id="Group_1" data-name="Group 1"><g id="Linked" class="cls-1"><g class="cls-1"><path class="cls-2" d="M10.52,42.5c-1.14.07-2.3.17-3.47.3s-2.31.31-3.42.53a23,23,0,0,0-3,.77c.2-1.5.43-3.17.7-5s.58-3.73.93-5.7.69-3.95,1-5.95S4,23.53,4.35,21.7Q5.6,15.14,7,8.35L15.75,7.2Q14.4,13,13.15,18.5c-.37,1.57-.73,3.19-1.1,4.88S11.33,26.7,11,28.3s-.63,3.15-.9,4.65-.48,2.83-.65,4c.83-.07,1.72-.11,2.68-.12l2.52,0c0,.63.08,1.26.15,1.87s.14,1.18.22,1.68.15.94.21,1.32a6.59,6.59,0,0,0,.12.78c-.27,0-.52,0-.77,0l-.78,0C12.77,42.4,11.67,42.43,10.52,42.5Z"/><path class="cls-2" d="M21.82,43.13c-.88.08-1.79.18-2.72.29l-2.53.33a10.33,10.33,0,0,0-1.22.2c.33-1.43.67-3,1-4.78s.71-3.58,1.08-5.5.72-3.85,1.05-5.82.65-3.87.95-5.7Q20.5,15.75,21.55,9l7.8-1.25Q28.19,14.46,27.1,20.9l-.93,5.7q-.47,3-1,5.85t-.87,5.63Q23.94,40.8,23.6,43C23.3,43,22.71,43,21.82,43.13Z"/><path class="cls-2" d="M25.45,44.25Q27,37.05,28.3,30.3q.49-2.89,1.07-6t1.08-6.13c.33-2,.63-4,.9-5.79s.47-3.53.6-5c.43,0,.8.05,1.1.05H34.1l1.7,0,2-.08L40,7.2c.47,2.33.88,4.58,1.25,6.75q.55,2.85,1.12,5.85t1,5.1l.45-2.32c.17-.89.35-1.81.55-2.78s.39-1.94.57-2.92.38-2,.58-2.93q.7-3.25,1.45-6.7l6.1-.75q-1.69,7.65-3,14.5-.6,3-1.18,6c-.38,2-.74,4-1.07,5.81s-.62,3.56-.85,5.14-.42,2.91-.55,4a9.34,9.34,0,0,0-1.18.23l-2.35.52-2.65.6a14.76,14.76,0,0,0-2,.55q-.3-4-.65-7.6c-.1-1-.21-2.09-.33-3.17S37,30.9,36.9,29.9s-.27-1.93-.4-2.8-.27-1.62-.4-2.25c-.1.63-.23,1.37-.4,2.2s-.33,1.72-.5,2.65-.33,1.91-.5,2.93-.35,2-.55,2.92c-.43,2.23-.9,4.57-1.4,7Z"/><path class="cls-2" d="M48.15,44.05q1.5-7,2.8-13.6.49-2.85,1-5.9t1-6.05q.48-3,.85-5.83c.25-1.88.45-3.59.58-5.12.77.07,1.63.12,2.6.17s1.87.11,2.7.18c1,.07,2,.1,3,.1q0,.2-.15.75c-.07.37-.15.81-.25,1.33s-.21,1.09-.33,1.72-.24,1.27-.37,1.9q-.4,2.21-.9,4.95l.3,0c.33-.53.81-1.27,1.42-2.22s1.26-2,1.93-3,1.32-2.09,1.95-3.07S67.52,8.45,68,7.75c1.67-.13,3.33-.28,5-.45s3.33-.38,5-.65c-1.57,2.1-3.08,4.17-4.55,6.2-.63.87-1.28,1.77-1.93,2.7L69.55,18.3c-.63.9-1.23,1.77-1.78,2.6s-1,1.6-1.47,2.3q1.1,5.06,2.6,9.75t3,9.6l-2.35-.08-2.35,0-2.8,0-2.8.08c-.3-2.17-.63-4.44-1-6.83s-.67-4.65-1-6.82L58.8,30c-.23,1-.49,2.23-.78,3.7s-.55,2.88-.82,4.25c-.3,1.6-.62,3.25-1,5Z"/><path class="cls-2" d="M71.3,44.05,77.85,8.5l15.8-1.35a23.2,23.2,0,0,0-.6,2.25q-.26.94-.48,2c-.15.68-.27,1.29-.37,1.82-.33,0-.81.06-1.43.08l-2,.05-2.13,0H84.8l-1.75,9c1-.07,2-.12,2.9-.15.73,0,1.48,0,2.25,0s1.33,0,1.7-.05c-.14.93-.26,1.85-.38,2.75s-.26,1.82-.42,2.75c-.34,0-.88.06-1.63.08s-1.51,0-2.27.07l-2.85.1L80.65,37,88,35.85l-.5,5.7Z"/><path class="cls-2" d="M112.65,24a33,33,0,0,1-2.1,5.81,31.25,31.25,0,0,1-3.33,5.5,25,25,0,0,1-4.47,4.6,22.32,22.32,0,0,1-5.48,3.17A16.72,16.72,0,0,1,91,44.25a13,13,0,0,1-1.4-.08c-.47,0-.94-.1-1.4-.17q1.35-6.9,2.65-13.45.49-2.75,1-5.72T92.9,19c.33-1.93.66-3.78,1-5.55s.58-3.37.78-4.8q2.14-.4,4.35-.75a28.88,28.88,0,0,1,4.5-.35,11,11,0,0,1,4.57.85,8,8,0,0,1,3.05,2.35,9.81,9.81,0,0,1,1.73,3.5,16.22,16.22,0,0,1,.55,4.25A22.2,22.2,0,0,1,112.65,24Zm-12.2-3.77q-.6,2.7-1.2,5.45t-1.2,5.75c-.4,2-.79,4.18-1.15,6.55a10.82,10.82,0,0,0,2.32-2.17,22,22,0,0,0,2.13-3.18,38.11,38.11,0,0,0,1.82-3.8c.55-1.33,1-2.63,1.43-3.9a31.7,31.7,0,0,0,.92-3.55,14.84,14.84,0,0,0,.33-2.85,4,4,0,0,0-1-2.9,4.33,4.33,0,0,0-3.22-1Q101,17.51,100.45,20.2Z"/></g></g><g id="Comics" class="cls-1"><g class="cls-1"><path class="cls-2" d="M42.48,74.5a17.5,17.5,0,0,1-2.86,3.13,10.66,10.66,0,0,1-3,1.86,8,8,0,0,1-2.94.6,5.3,5.3,0,0,1-2.6-.64A6,6,0,0,1,29,77.52a10.86,10.86,0,0,1-1.4-3.18,16.55,16.55,0,0,1-.53-4.41,31,31,0,0,1,1.2-8.54,27.76,27.76,0,0,1,3.35-7.56,18.88,18.88,0,0,1,5.13-5.41,11.35,11.35,0,0,1,6.56-2.05,5.14,5.14,0,0,1,2.11.46,5.21,5.21,0,0,1,1.75,1.29,6.19,6.19,0,0,1,1.17,2,7.69,7.69,0,0,1,.44,2.66v.58a3.31,3.31,0,0,1,0,.62l-6,1.61c-.37-.77-.8-1.15-1.29-1.15a2.22,2.22,0,0,0-1.54.85,11.8,11.8,0,0,0-1.59,2.21,33.08,33.08,0,0,0-1.52,3A35.47,35.47,0,0,0,35.51,64q-.55,1.69-.9,3.24a12,12,0,0,0-.34,2.51,4,4,0,0,0,.39,2.07,1.17,1.17,0,0,0,1,.59A2.28,2.28,0,0,0,36.84,72,5.12,5.12,0,0,0,38,71a9.48,9.48,0,0,0,1-1.4A5.65,5.65,0,0,0,39.69,68l5.25,2.12A23.49,23.49,0,0,1,42.48,74.5Z"/><path class="cls-2" d="M69.29,62.22a30.62,30.62,0,0,1-2.14,6.12,25.35,25.35,0,0,1-3.1,5A24.57,24.57,0,0,1,60.35,77a16.18,16.18,0,0,1-3.91,2.35,10,10,0,0,1-3.78.8,6.55,6.55,0,0,1-2.76-.57,6.15,6.15,0,0,1-2.16-1.7A8.47,8.47,0,0,1,46.29,75a15.1,15.1,0,0,1-.53-4.26,24.62,24.62,0,0,1,.65-5.42,38,38,0,0,1,1.75-5.66,31.15,31.15,0,0,1,2.71-5.34,26.69,26.69,0,0,1,3.54-4.48,16.64,16.64,0,0,1,4.14-3.11,9.92,9.92,0,0,1,4.6-1.15,6.43,6.43,0,0,1,3.43.85,6.23,6.23,0,0,1,2.12,2.21,10.46,10.46,0,0,1,1.08,3.06,18.63,18.63,0,0,1,.32,3.4A30,30,0,0,1,69.29,62.22ZM52.8,70.62a3,3,0,0,0,.51,1,2.74,2.74,0,0,0,.8.71,1.87,1.87,0,0,0,1,.3,5.4,5.4,0,0,0,3.68-1.42,11.91,11.91,0,0,0,2.67-3.5,20.39,20.39,0,0,0,1.63-4.41A18.3,18.3,0,0,0,63.7,59q0-.55-.06-1.2a4.82,4.82,0,0,0-.28-1.19,2.39,2.39,0,0,0-.64-1,1.73,1.73,0,0,0-1.18-.39,5.23,5.23,0,0,0-2.71.74,8.35,8.35,0,0,0-2.23,1.95,14.17,14.17,0,0,0-1.73,2.76,26.93,26.93,0,0,0-1.26,3.13,17.59,17.59,0,0,0-.76,3.11,16.9,16.9,0,0,0-.23,2.62A3.42,3.42,0,0,0,52.8,70.62Z"/><path class="cls-2" d="M65.64,79.72c1.35-4.07,2.63-8.08,3.86-12q.78-2.49,1.61-5.2t1.66-5.38q.83-2.67,1.54-5.15c.47-1.66.89-3.19,1.26-4.6a40.36,40.36,0,0,0,4.79-.28c1.5-.18,3.12-.35,4.87-.51l-.3,2.28c-.1.84-.23,1.73-.36,2.65s-.29,1.87-.44,2.85-.34,2.24-.55,3.77-.51,3.45-.88,5.75h.6q1.33-3.49,2.21-5.82c.58-1.55,1.06-2.81,1.42-3.79s.75-1.94,1.13-2.88.75-1.82,1.11-2.67.68-1.58,1-2.23c.77-.06,1.49-.14,2.17-.23s1.35-.19,2-.3l2-.32,2.27-.39q-.45,2.67-.87,5.47c-.28,1.88-.52,3.74-.74,5.59s-.42,3.69-.62,5.5-.37,3.53-.53,5.15c-.36,3.81-.69,7.52-1,11.13l-8,1.43c0-.15,0-.57.07-1.24s.11-1.5.19-2.49.18-2.07.32-3.26.28-2.39.41-3.59.29-2.35.44-3.47.31-2.08.46-2.88h-.41C88,63.9,87.5,65.26,87,66.68L85.39,71c-.53,1.47-1.06,2.91-1.58,4.32s-1,2.76-1.38,4.05q-1.62,0-2.76.12L77,79.68l1.47-17.07h-.69a20.28,20.28,0,0,1-.46,2l-.85,3.22c-.32,1.21-.67,2.47-1,3.78s-.71,2.51-1,3.63-.59,2-.81,2.76-.33,1.13-.36,1.22Z"/><path class="cls-2" d="M101.68,79.2c-.82.07-1.65.16-2.51.27l-2.32.3a9.09,9.09,0,0,0-1.13.18c.31-1.31.62-2.78.94-4.39s.65-3.3,1-5.06.66-3.55,1-5.36.6-3.56.87-5.24q1-5.9,1.93-12.1l7.18-1.15q-1.06,6.16-2.07,12.1-.42,2.52-.85,5.24c-.29,1.81-.58,3.61-.88,5.38s-.55,3.51-.8,5.18-.48,3.18-.69,4.53C103,79.08,102.49,79.12,101.68,79.2Z"/><path class="cls-2" d="M122,74.5a17.1,17.1,0,0,1-2.85,3.13,10.8,10.8,0,0,1-3,1.86,8,8,0,0,1-2.95.6,5.33,5.33,0,0,1-2.6-.64,5.92,5.92,0,0,1-2-1.93,10.86,10.86,0,0,1-1.41-3.18,16.57,16.57,0,0,1-.52-4.41,31,31,0,0,1,1.19-8.54,28.08,28.08,0,0,1,3.36-7.56,18.88,18.88,0,0,1,5.13-5.41,11.32,11.32,0,0,1,6.55-2.05,5.19,5.19,0,0,1,2.12.46,5.31,5.31,0,0,1,1.75,1.29,6.19,6.19,0,0,1,1.17,2,7.69,7.69,0,0,1,.44,2.66v.58a4.44,4.44,0,0,1,0,.62l-6,1.61c-.37-.77-.8-1.15-1.29-1.15a2.21,2.21,0,0,0-1.54.85,11.8,11.8,0,0,0-1.59,2.21,30.72,30.72,0,0,0-1.52,3A35.55,35.55,0,0,0,115,64c-.36,1.13-.66,2.21-.89,3.24a12.07,12.07,0,0,0-.35,2.51,4,4,0,0,0,.39,2.07,1.18,1.18,0,0,0,1,.59,2.31,2.31,0,0,0,1.15-.39,4.88,4.88,0,0,0,1.19-1,8.85,8.85,0,0,0,1-1.4,5.65,5.65,0,0,0,.64-1.57l5.24,2.12A22.41,22.41,0,0,1,122,74.5Z"/><path class="cls-2" d="M143.21,73.31a11.36,11.36,0,0,1-2.66,3.61,11.87,11.87,0,0,1-4,2.34,14,14,0,0,1-4.9.83,7.71,7.71,0,0,1-3.68-1A11.6,11.6,0,0,1,124.47,76l3.4-6.67a5.13,5.13,0,0,0,1,1.22,6.76,6.76,0,0,0,1.45,1.08,10.2,10.2,0,0,0,1.61.76,4.17,4.17,0,0,0,1.45.3,4,4,0,0,0,1.15-.18,3.81,3.81,0,0,0,1.1-.56,2.84,2.84,0,0,0,.81-.85,2.06,2.06,0,0,0,.3-1.12,3.31,3.31,0,0,0-.72-2.05,10,10,0,0,0-1.77-1.8c-.7-.56-1.47-1.14-2.3-1.72a21.27,21.27,0,0,1-2.28-1.84,10.2,10.2,0,0,1-1.77-2.16,5,5,0,0,1-.73-2.67,7.72,7.72,0,0,1,1.42-4.46,14.08,14.08,0,0,1,3.57-3.57,19.18,19.18,0,0,1,4.67-2.37,14.69,14.69,0,0,1,4.78-.87,9,9,0,0,1,2.35.3,5.14,5.14,0,0,1,1.91,1,5,5,0,0,1,1.28,1.68,5.76,5.76,0,0,1,.49,2.53,7,7,0,0,1-.12,1.29c-.07.43-.14.89-.2,1.38l-6.67,1.93c.06-.24.11-.49.16-.73a4.62,4.62,0,0,0,.06-.74,3.29,3.29,0,0,0-.48-2,1.53,1.53,0,0,0-1.26-.62,2,2,0,0,0-.9.28,6,6,0,0,0-1.06.71,4.18,4.18,0,0,0-.89,1,2.39,2.39,0,0,0-.37,1.29,2.72,2.72,0,0,0,.62,1.84A7.73,7.73,0,0,0,138,58.93c.61.43,1.28.87,2,1.31A8.72,8.72,0,0,1,142,62a8.84,8.84,0,0,1,1.54,2.64,11,11,0,0,1,.62,4A10.79,10.79,0,0,1,143.21,73.31Z"/></g></g></g></svg>